<svg xmlns="http://www.w3.org/2000/svg" viewBox="0 0 32 32" fill="none">
  <rect width="32" height="32" rx="8" fill="#48D9C1"/>
  <path d="M10 12h6a1.5 1.5 0 011.5 1.5v6A1.5 1.5 0 0116 21h-6a1.5 1.5 0 01-1.5-1.5v-6A1.5 1.5 0 0110 12z" fill="rgba(255,255,255,0.3)"/>
  <path d="M13 10h6a1.5 1.5 0 011.5 1.5v6A1.5 1.5 0 0119 19h-6a1.5 1.5 0 01-1.5-1.5v-6A1.5 1.5 0 0113 10z" fill="rgba(255,255,255,0.55)"/>
  <path d="M16 8h6a1.5 1.5 0 011.5 1.5v6A1.5 1.5 0 0122 17h-6a1.5 1.5 0 01-1.5-1.5v-6A1.5 1.5 0 0116 8z" fill="#fff"/>
  <path d="M18 13l3 1.5-3 1.5v-3z" fill="#48D9C1"/>
</svg>
